<?xml version="1.0" encoding="UTF-8" standalone="no"?>
<svg width="500px" height="52px" viewBox="0 0 500 52" version="1.1" xmlns="http://www.w3.org/2000/svg" xmlns:xlink="http://www.w3.org/1999/xlink" xmlns:sketch="http://www.bohemiancoding.com/sketch/ns">
    <!-- Generator: Sketch 3.3.2 (12043) - http://www.bohemiancoding.com/sketch -->
    <title>TRAININGMARTIN Copy</title>
    <desc>Created with Sketch.</desc>
    <defs></defs>
    <g id="Page-1" stroke="none" stroke-width="1" fill="none" fill-rule="evenodd" sketch:type="MSPage">
        <path d="M12.5,51 L21.454,10.374 L32.406,10.374 L34.33,1.642 L2.51,1.642 L0.586,10.374 L11.538,10.374 L2.584,51 L12.5,51 Z M63.19,51 L58.602,31.908 C64.966,30.28 70.442,23.398 70.442,14.888 C70.442,7.044 64.374,1.642 56.9,1.642 L40.25,1.642 L29.372,51 L39.288,51 L43.21,33.166 L48.982,33.166 L52.534,51 L63.19,51 Z M45.134,24.434 L48.242,10.374 L54.828,10.374 C57.714,10.374 60.082,12.298 60.082,15.85 C60.082,20.364 57.122,24.434 52.164,24.434 L45.134,24.434 Z M106.924,51 L103.15,1.642 L91.162,1.642 L65.632,51 L76.806,51 L80.95,42.268 L96.194,42.268 L96.564,51 L106.924,51 Z M96.046,33.536 L84.872,33.536 L95.232,12.076 L96.046,33.536 Z M121.058,51 L131.936,1.642 L122.02,1.642 L111.142,51 L121.058,51 Z M165.976,51 L176.854,1.642 L166.864,1.642 L160.426,30.872 L150.732,1.642 L140.668,1.642 L129.79,51 L139.706,51 L146.366,20.66 L156.504,51 L165.976,51 Z M184.55,51 L195.428,1.642 L185.512,1.642 L174.634,51 L184.55,51 Z M229.468,51 L240.346,1.642 L230.356,1.642 L223.918,30.872 L214.224,1.642 L204.16,1.642 L193.282,51 L203.198,51 L209.858,20.66 L219.996,51 L229.468,51 Z M258.994,51.888 C265.58,51.888 271.352,48.854 275.57,43.304 L279.862,23.916 L261.214,23.916 L259.216,32.648 L268.54,32.648 L266.986,39.604 C265.062,41.528 262.694,43.082 259.586,43.082 C253.962,43.082 250.706,39.16 250.706,32.796 C250.706,21.77 256.848,9.634 264.766,9.634 C269.058,9.634 272.018,12.668 272.98,16.442 L281.712,13.408 C280.158,6.896 275.274,0.828 265.802,0.828 C249.966,0.828 240.494,16.886 240.494,33.018 C240.494,44.636 248.042,51.888 258.994,51.888 L258.994,51.888 Z M322.486,51 L333.364,1.642 L325.076,1.642 L305.096,37.606 L301.174,1.642 L293.182,1.642 L282.304,51 L288.224,51 L296.956,11.336 L301.248,51 L303.542,51 L325.446,11.336 L316.714,51 L322.486,51 Z M364.888,51 L360.966,1.642 L353.936,1.642 L328.258,51 L334.844,51 L340.468,39.826 L358.006,39.826 L358.746,51 L364.888,51 Z M357.932,34.646 L342.91,34.646 L356.23,8.154 L357.932,34.646 Z M399.816,51 L394.044,30.65 C401.592,29.466 407.142,22.51 407.142,13.63 C407.142,6.378 401.74,1.642 395.228,1.642 L381.538,1.642 L370.66,51 L376.58,51 L380.872,31.242 L388.346,31.242 L393.452,51 L399.816,51 Z M381.982,26.062 L386.274,6.822 L394.266,6.822 C397.892,6.822 400.926,9.486 400.926,14.074 C400.926,20.142 397.3,26.062 390.492,26.062 L381.982,26.062 Z M421.646,51 L431.414,6.822 L443.18,6.822 L444.29,1.642 L414.986,1.642 L413.876,6.822 L425.568,6.822 L415.8,51 L421.646,51 Z M446.362,51 L457.24,1.642 L451.32,1.642 L440.442,51 L446.362,51 Z M488.69,51 L499.568,1.642 L493.648,1.642 L485.434,38.642 L473.52,1.642 L467.6,1.642 L456.722,51 L462.642,51 L470.93,13.186 L482.992,51 L488.69,51 Z" id="TRAININGMARTIN-Copy" fill="#313232" sketch:type="MSShapeGroup"></path>
    </g>
</svg>